# xmcd
#
# Track frame offsets:
#	183
#	9845
#	18258
#	28020
#	39795
#	49808
#	59408
#	69965
#	83270
#	93833
#	107370
#	120408
#	130458
#	143420
#	157645
#	170920
#	187870
#	202758
#	221033
#	237045
#	251745
#	263670
#	277570
#	288158
#	301870
#
# Disc length: 4189
#
# Revision: 3
# Processed by: cddbd v1.5.1PL0 Copyright (c) Steve Scherf et al.
# Submitted via: CDWizzard Release:4.35
# Normalized: r1:TDELIM( - ),TSWAP
#
DISCID=2a105b19
DTITLE=Various Artist - 25 Super Oldies - Volume 2
DYEAR=1900
DGENRE=
TTITLE0=Jackie Wilson - Shake Shake Shake
TTITLE1=Jerry Lee Lewis - Great Balls of Fire
TTITLE2=The Marcels - Blue Moon
TTITLE3=Pat Boone - Speedy Gonzales
TTITLE4=Lesley Gore - It's my Party
TTITLE5=Buddy Holly - Every Day
TTITLE6=The Everly Brothers - Be-Bop-A-Lula
TTITLE7=Ben E. King - Stand by me
TTITLE8=Timi Yuro - Hurt
TTITLE9=Trini Lopez - If I had a hammer
TTITLE10=The Turtles - Happy together
TTITLE11=Gerry and the peacemakers - I like it
TTITLE12=Dionne Warwick - Anyone who had a heart
TTITLE13=The Tremeloes - Young Girl
TTITLE14=Lynn Anderson - (I never promised you) A Rosegarden
TTITLE15=Glady Knight and The Pips - You're the best thing that ever happened to me
TTITLE16=George McCrae - Rock your baby
TTITLE17=Brook Benton - A rainy night in Georgia
TTITLE18=Melanie - Beautiful People
TTITLE19=Sam and Dave - When something is wrong with my baby
TTITLE20=The lovin' spoonful - Summer in the city
TTITLE21=The Troggs - I can't control myself
TTITLE22=Sam the sham and The Pharoahs - Wooly Bully
TTITLE23=The Ventures - Diamond Heart
TTITLE24=The Kingsmen - Louie, Louie
EXTD=
EXTT0=
EXTT1=
EXTT2=
EXTT3=
EXTT4=
EXTT5=
EXTT6=
EXTT7=
EXTT8=
EXTT9=
EXTT10=
EXTT11=
EXTT12=
EXTT13=
EXTT14=
EXTT15=
EXTT16=
EXTT17=
EXTT18=
EXTT19=
EXTT20=
EXTT21=
EXTT22=
EXTT23=
EXTT24=
PLAYORDER=
